<mxfile host="Electron" modified="2023-05-24T19:55:41.635Z" agent="Mozilla/5.0 (Macintosh; Intel Mac OS X 10_15_7) AppleWebKit/537.36 (KHTML, like Gecko) draw.io/21.2.8 Chrome/112.0.5615.165 Electron/24.2.0 Safari/537.36" etag="ntaJ-KoM8poLplBOh8pE" version="21.2.8" type="device">
  <diagram id="qy2qSbY3riS61LTxJreO" name="Page-1">
    <mxGraphModel dx="1781" dy="584" grid="1" gridSize="10" guides="1" tooltips="1" connect="1" arrows="1" fold="1" page="1" pageScale="1" pageWidth="827" pageHeight="1169" math="0" shadow="0">
      <root>
        <mxCell id="0" />
        <mxCell id="1" parent="0" />
        <mxCell id="nrgCyI4Qcjg0DDZfqGtk-5" value="Private subnet" style="points=[[0,0],[0.25,0],[0.5,0],[0.75,0],[1,0],[1,0.25],[1,0.5],[1,0.75],[1,1],[0.75,1],[0.5,1],[0.25,1],[0,1],[0,0.75],[0,0.5],[0,0.25]];outlineConnect=0;gradientColor=none;html=1;whiteSpace=wrap;fontSize=12;fontStyle=0;container=1;pointerEvents=0;collapsible=0;recursiveResize=0;shape=mxgraph.aws4.group;grIcon=mxgraph.aws4.group_security_group;grStroke=0;strokeColor=#147EBA;fillColor=#E6F2F8;verticalAlign=top;align=left;spacingLeft=30;fontColor=#147EBA;dashed=0;" vertex="1" parent="1">
          <mxGeometry x="260" y="448" width="334" height="140" as="geometry" />
        </mxCell>
        <mxCell id="avdNNv7QA7Cx9In89-n9-5" value="VPC" style="points=[[0,0],[0.25,0],[0.5,0],[0.75,0],[1,0],[1,0.25],[1,0.5],[1,0.75],[1,1],[0.75,1],[0.5,1],[0.25,1],[0,1],[0,0.75],[0,0.5],[0,0.25]];outlineConnect=0;gradientColor=none;html=1;whiteSpace=wrap;fontSize=12;fontStyle=0;container=1;pointerEvents=0;collapsible=0;recursiveResize=0;shape=mxgraph.aws4.group;grIcon=mxgraph.aws4.group_vpc;strokeColor=#248814;fillColor=none;verticalAlign=top;align=left;spacingLeft=30;fontColor=#AAB7B8;dashed=0;" parent="1" vertex="1">
          <mxGeometry x="-20" y="380" width="980" height="560" as="geometry" />
        </mxCell>
        <mxCell id="avdNNv7QA7Cx9In89-n9-3" value="Availability Zone" style="fillColor=none;strokeColor=#147EBA;dashed=1;verticalAlign=top;fontStyle=0;fontColor=#147EBA;" parent="avdNNv7QA7Cx9In89-n9-5" vertex="1">
          <mxGeometry x="10" y="220" width="363" height="330" as="geometry" />
        </mxCell>
        <mxCell id="avdNNv7QA7Cx9In89-n9-24" value="Security group" style="fillColor=none;strokeColor=#DD3522;verticalAlign=top;fontStyle=0;fontColor=#DD3522;" parent="avdNNv7QA7Cx9In89-n9-5" vertex="1">
          <mxGeometry x="120" y="276" width="640" height="109" as="geometry" />
        </mxCell>
        <mxCell id="avdNNv7QA7Cx9In89-n9-16" value="Availability Zone" style="fillColor=none;strokeColor=#147EBA;dashed=1;verticalAlign=top;fontStyle=0;fontColor=#147EBA;" parent="avdNNv7QA7Cx9In89-n9-5" vertex="1">
          <mxGeometry x="499" y="220" width="363" height="328" as="geometry" />
        </mxCell>
        <mxCell id="avdNNv7QA7Cx9In89-n9-4" value="Database (private) subnet" style="points=[[0,0],[0.25,0],[0.5,0],[0.75,0],[1,0],[1,0.25],[1,0.5],[1,0.75],[1,1],[0.75,1],[0.5,1],[0.25,1],[0,1],[0,0.75],[0,0.5],[0,0.25]];outlineConnect=0;gradientColor=none;html=1;whiteSpace=wrap;fontSize=12;fontStyle=0;container=1;pointerEvents=0;collapsible=0;recursiveResize=0;shape=mxgraph.aws4.group;grIcon=mxgraph.aws4.group_security_group;grStroke=0;strokeColor=#147EBA;fillColor=#E6F2F8;verticalAlign=top;align=left;spacingLeft=30;fontColor=#147EBA;dashed=0;" parent="avdNNv7QA7Cx9In89-n9-5" vertex="1">
          <mxGeometry x="20" y="400" width="340" height="140" as="geometry" />
        </mxCell>
        <mxCell id="avdNNv7QA7Cx9In89-n9-13" value="Private subnet" style="points=[[0,0],[0.25,0],[0.5,0],[0.75,0],[1,0],[1,0.25],[1,0.5],[1,0.75],[1,1],[0.75,1],[0.5,1],[0.25,1],[0,1],[0,0.75],[0,0.5],[0,0.25]];outlineConnect=0;gradientColor=none;html=1;whiteSpace=wrap;fontSize=12;fontStyle=0;container=1;pointerEvents=0;collapsible=0;recursiveResize=0;shape=mxgraph.aws4.group;grIcon=mxgraph.aws4.group_security_group;grStroke=0;strokeColor=#147EBA;fillColor=#E6F2F8;verticalAlign=top;align=left;spacingLeft=30;fontColor=#147EBA;dashed=0;" parent="avdNNv7QA7Cx9In89-n9-5" vertex="1">
          <mxGeometry x="21.5" y="250" width="340" height="140" as="geometry" />
        </mxCell>
        <mxCell id="avdNNv7QA7Cx9In89-n9-17" value="Database (private) subnet" style="points=[[0,0],[0.25,0],[0.5,0],[0.75,0],[1,0],[1,0.25],[1,0.5],[1,0.75],[1,1],[0.75,1],[0.5,1],[0.25,1],[0,1],[0,0.75],[0,0.5],[0,0.25]];outlineConnect=0;gradientColor=none;html=1;whiteSpace=wrap;fontSize=12;fontStyle=0;container=1;pointerEvents=0;collapsible=0;recursiveResize=0;shape=mxgraph.aws4.group;grIcon=mxgraph.aws4.group_security_group;grStroke=0;strokeColor=#147EBA;fillColor=#E6F2F8;verticalAlign=top;align=left;spacingLeft=30;fontColor=#147EBA;dashed=0;" parent="avdNNv7QA7Cx9In89-n9-5" vertex="1">
          <mxGeometry x="509" y="400" width="340" height="138" as="geometry" />
        </mxCell>
        <mxCell id="avdNNv7QA7Cx9In89-n9-18" value="Private subnet" style="points=[[0,0],[0.25,0],[0.5,0],[0.75,0],[1,0],[1,0.25],[1,0.5],[1,0.75],[1,1],[0.75,1],[0.5,1],[0.25,1],[0,1],[0,0.75],[0,0.5],[0,0.25]];outlineConnect=0;gradientColor=none;html=1;whiteSpace=wrap;fontSize=12;fontStyle=0;container=1;pointerEvents=0;collapsible=0;recursiveResize=0;shape=mxgraph.aws4.group;grIcon=mxgraph.aws4.group_security_group;grStroke=0;strokeColor=#147EBA;fillColor=#E6F2F8;verticalAlign=top;align=left;spacingLeft=30;fontColor=#147EBA;dashed=0;" parent="avdNNv7QA7Cx9In89-n9-5" vertex="1">
          <mxGeometry x="510.5" y="250" width="340" height="138" as="geometry" />
        </mxCell>
        <mxCell id="avdNNv7QA7Cx9In89-n9-44" value="" style="sketch=0;outlineConnect=0;fontColor=#232F3E;gradientColor=none;fillColor=#4D27AA;strokeColor=none;dashed=0;verticalLabelPosition=bottom;verticalAlign=top;align=center;html=1;fontSize=12;fontStyle=0;aspect=fixed;pointerEvents=1;shape=mxgraph.aws4.nat_gateway;" parent="avdNNv7QA7Cx9In89-n9-18" vertex="1">
          <mxGeometry x="271.5" y="58.00999999999999" width="58" height="58" as="geometry" />
        </mxCell>
        <mxCell id="avdNNv7QA7Cx9In89-n9-21" value="Auto Scaling group" style="points=[[0,0],[0.25,0],[0.5,0],[0.75,0],[1,0],[1,0.25],[1,0.5],[1,0.75],[1,1],[0.75,1],[0.5,1],[0.25,1],[0,1],[0,0.75],[0,0.5],[0,0.25]];outlineConnect=0;gradientColor=none;html=1;whiteSpace=wrap;fontSize=12;fontStyle=0;container=1;pointerEvents=0;collapsible=0;recursiveResize=0;shape=mxgraph.aws4.groupCenter;grIcon=mxgraph.aws4.group_auto_scaling_group;grStroke=1;strokeColor=#D86613;fillColor=none;verticalAlign=top;align=center;fontColor=#D86613;dashed=1;spacingTop=25;" parent="avdNNv7QA7Cx9In89-n9-5" vertex="1">
          <mxGeometry x="130" y="301" width="620" height="72" as="geometry" />
        </mxCell>
        <mxCell id="avdNNv7QA7Cx9In89-n9-23" value="Security group" style="fillColor=none;strokeColor=#DD3522;verticalAlign=top;fontStyle=0;fontColor=#DD3522;" parent="avdNNv7QA7Cx9In89-n9-5" vertex="1">
          <mxGeometry x="30" y="427" width="810" height="109" as="geometry" />
        </mxCell>
        <mxCell id="avdNNv7QA7Cx9In89-n9-26" value="" style="sketch=0;points=[[0,0,0],[0.25,0,0],[0.5,0,0],[0.75,0,0],[1,0,0],[0,1,0],[0.25,1,0],[0.5,1,0],[0.75,1,0],[1,1,0],[0,0.25,0],[0,0.5,0],[0,0.75,0],[1,0.25,0],[1,0.5,0],[1,0.75,0]];outlineConnect=0;fontColor=#232F3E;gradientColor=#F78E04;gradientDirection=north;fillColor=#D05C17;strokeColor=#ffffff;dashed=0;verticalLabelPosition=bottom;verticalAlign=top;align=center;html=1;fontSize=12;fontStyle=0;aspect=fixed;shape=mxgraph.aws4.resourceIcon;resIcon=mxgraph.aws4.ec2;" parent="avdNNv7QA7Cx9In89-n9-5" vertex="1">
          <mxGeometry x="166" y="306.63" width="60.75" height="60.75" as="geometry" />
        </mxCell>
        <mxCell id="avdNNv7QA7Cx9In89-n9-83" style="edgeStyle=orthogonalEdgeStyle;rounded=0;orthogonalLoop=1;jettySize=auto;html=1;exitX=0.5;exitY=1;exitDx=0;exitDy=0;exitPerimeter=0;" parent="avdNNv7QA7Cx9In89-n9-5" edge="1" target="nrgCyI4Qcjg0DDZfqGtk-7" source="avdNNv7QA7Cx9In89-n9-34">
          <mxGeometry relative="1" as="geometry">
            <mxPoint x="856.8415384615381" y="383.8699999999999" as="sourcePoint" />
            <mxPoint x="427.13" y="452.4999999999998" as="targetPoint" />
            <Array as="points">
              <mxPoint x="690" y="390" />
              <mxPoint x="427" y="390" />
            </Array>
          </mxGeometry>
        </mxCell>
        <mxCell id="avdNNv7QA7Cx9In89-n9-34" value="" style="sketch=0;points=[[0,0,0],[0.25,0,0],[0.5,0,0],[0.75,0,0],[1,0,0],[0,1,0],[0.25,1,0],[0.5,1,0],[0.75,1,0],[1,1,0],[0,0.25,0],[0,0.5,0],[0,0.75,0],[1,0.25,0],[1,0.5,0],[1,0.75,0]];outlineConnect=0;fontColor=#232F3E;gradientColor=#F78E04;gradientDirection=north;fillColor=#D05C17;strokeColor=#ffffff;dashed=0;verticalLabelPosition=bottom;verticalAlign=top;align=center;html=1;fontSize=12;fontStyle=0;aspect=fixed;shape=mxgraph.aws4.resourceIcon;resIcon=mxgraph.aws4.ec2;" parent="avdNNv7QA7Cx9In89-n9-5" vertex="1">
          <mxGeometry x="660" y="306.62" width="60.75" height="60.75" as="geometry" />
        </mxCell>
        <mxCell id="avdNNv7QA7Cx9In89-n9-43" value="" style="sketch=0;outlineConnect=0;fontColor=#232F3E;gradientColor=none;fillColor=#4D27AA;strokeColor=none;dashed=0;verticalLabelPosition=bottom;verticalAlign=top;align=center;html=1;fontSize=12;fontStyle=0;aspect=fixed;pointerEvents=1;shape=mxgraph.aws4.nat_gateway;" parent="avdNNv7QA7Cx9In89-n9-5" vertex="1">
          <mxGeometry x="32" y="308" width="58" height="58" as="geometry" />
        </mxCell>
        <mxCell id="avdNNv7QA7Cx9In89-n9-45" value="" style="sketch=0;points=[[0,0,0],[0.25,0,0],[0.5,0,0],[0.75,0,0],[1,0,0],[0,1,0],[0.25,1,0],[0.5,1,0],[0.75,1,0],[1,1,0],[0,0.25,0],[0,0.5,0],[0,0.75,0],[1,0.25,0],[1,0.5,0],[1,0.75,0]];outlineConnect=0;fontColor=#232F3E;gradientColor=#60A337;gradientDirection=north;fillColor=#277116;strokeColor=#ffffff;dashed=0;verticalLabelPosition=bottom;verticalAlign=top;align=center;html=1;fontSize=12;fontStyle=0;aspect=fixed;shape=mxgraph.aws4.resourceIcon;resIcon=mxgraph.aws4.s3;" parent="avdNNv7QA7Cx9In89-n9-5" vertex="1">
          <mxGeometry x="886" y="425" width="68" height="68" as="geometry" />
        </mxCell>
        <mxCell id="avdNNv7QA7Cx9In89-n9-49" value="" style="outlineConnect=0;dashed=0;verticalLabelPosition=bottom;verticalAlign=top;align=center;html=1;shape=mxgraph.aws3.ami;fillColor=#F58534;gradientColor=none;" parent="avdNNv7QA7Cx9In89-n9-5" vertex="1">
          <mxGeometry x="894" y="302.49" width="60" height="63" as="geometry" />
        </mxCell>
        <mxCell id="avdNNv7QA7Cx9In89-n9-64" style="edgeStyle=orthogonalEdgeStyle;rounded=0;orthogonalLoop=1;jettySize=auto;html=1;entryX=0.5;entryY=0;entryDx=0;entryDy=0;" parent="avdNNv7QA7Cx9In89-n9-5" source="avdNNv7QA7Cx9In89-n9-50" target="avdNNv7QA7Cx9In89-n9-56" edge="1">
          <mxGeometry relative="1" as="geometry" />
        </mxCell>
        <mxCell id="avdNNv7QA7Cx9In89-n9-76" style="edgeStyle=orthogonalEdgeStyle;rounded=0;orthogonalLoop=1;jettySize=auto;html=1;" parent="avdNNv7QA7Cx9In89-n9-5" target="nrgCyI4Qcjg0DDZfqGtk-2" edge="1">
          <mxGeometry relative="1" as="geometry">
            <Array as="points">
              <mxPoint x="450" y="40" />
              <mxPoint x="450" y="50" />
              <mxPoint x="124" y="50" />
            </Array>
            <mxPoint x="453.5" y="40" as="sourcePoint" />
            <mxPoint x="124" y="80" as="targetPoint" />
          </mxGeometry>
        </mxCell>
        <mxCell id="avdNNv7QA7Cx9In89-n9-50" value="" style="outlineConnect=0;dashed=0;verticalLabelPosition=bottom;verticalAlign=top;align=center;html=1;shape=mxgraph.aws3.internet_gateway;fillColor=#F58536;gradientColor=none;" parent="avdNNv7QA7Cx9In89-n9-5" vertex="1">
          <mxGeometry x="415" y="-32" width="69" height="72" as="geometry" />
        </mxCell>
        <mxCell id="avdNNv7QA7Cx9In89-n9-40" value="" style="sketch=0;points=[[0,0,0],[0.25,0,0],[0.5,0,0],[0.75,0,0],[1,0,0],[0,1,0],[0.25,1,0],[0.5,1,0],[0.75,1,0],[1,1,0],[0,0.25,0],[0,0.5,0],[0,0.75,0],[1,0.25,0],[1,0.5,0],[1,0.75,0]];outlineConnect=0;fontColor=#232F3E;gradientColor=#F54749;gradientDirection=north;fillColor=#C7131F;strokeColor=#ffffff;dashed=0;verticalLabelPosition=bottom;verticalAlign=top;align=center;html=1;fontSize=12;fontStyle=0;aspect=fixed;shape=mxgraph.aws4.resourceIcon;resIcon=mxgraph.aws4.waf;" parent="avdNNv7QA7Cx9In89-n9-5" vertex="1">
          <mxGeometry x="894" y="25" width="63" height="63" as="geometry" />
        </mxCell>
        <mxCell id="avdNNv7QA7Cx9In89-n9-51" value="" style="outlineConnect=0;dashed=0;verticalLabelPosition=bottom;verticalAlign=top;align=center;html=1;shape=mxgraph.aws3.cloudwatch;fillColor=#759C3E;gradientColor=none;" parent="avdNNv7QA7Cx9In89-n9-5" vertex="1">
          <mxGeometry x="891.43" y="130" width="72.5" height="73" as="geometry" />
        </mxCell>
        <mxCell id="avdNNv7QA7Cx9In89-n9-54" value="EC2" style="text;html=1;strokeColor=none;fillColor=none;align=center;verticalAlign=middle;whiteSpace=wrap;rounded=0;" parent="avdNNv7QA7Cx9In89-n9-5" vertex="1">
          <mxGeometry x="612" y="345" width="60" height="30" as="geometry" />
        </mxCell>
        <mxCell id="avdNNv7QA7Cx9In89-n9-56" value="Security group" style="fillColor=none;strokeColor=#DD3522;verticalAlign=top;fontStyle=0;fontColor=#DD3522;" parent="avdNNv7QA7Cx9In89-n9-5" vertex="1">
          <mxGeometry x="396" y="70" width="106" height="140" as="geometry" />
        </mxCell>
        <mxCell id="avdNNv7QA7Cx9In89-n9-31" value="" style="sketch=0;outlineConnect=0;fontColor=#232F3E;gradientColor=none;fillColor=#4D27AA;strokeColor=none;dashed=0;verticalLabelPosition=bottom;verticalAlign=top;align=center;html=1;fontSize=12;fontStyle=0;aspect=fixed;pointerEvents=1;shape=mxgraph.aws4.application_load_balancer;" parent="avdNNv7QA7Cx9In89-n9-5" vertex="1">
          <mxGeometry x="410" y="99.25" width="69.5" height="69.5" as="geometry" />
        </mxCell>
        <mxCell id="avdNNv7QA7Cx9In89-n9-74" style="edgeStyle=orthogonalEdgeStyle;rounded=0;orthogonalLoop=1;jettySize=auto;html=1;entryX=0;entryY=0.5;entryDx=0;entryDy=0;entryPerimeter=0;" parent="avdNNv7QA7Cx9In89-n9-5" source="avdNNv7QA7Cx9In89-n9-55" target="avdNNv7QA7Cx9In89-n9-34" edge="1">
          <mxGeometry relative="1" as="geometry">
            <Array as="points">
              <mxPoint x="451" y="270" />
              <mxPoint x="585" y="270" />
              <mxPoint x="585" y="337" />
            </Array>
          </mxGeometry>
        </mxCell>
        <mxCell id="avdNNv7QA7Cx9In89-n9-75" style="edgeStyle=orthogonalEdgeStyle;rounded=0;orthogonalLoop=1;jettySize=auto;html=1;exitX=0.5;exitY=1;exitDx=0;exitDy=0;entryX=1;entryY=0.5;entryDx=0;entryDy=0;entryPerimeter=0;" parent="avdNNv7QA7Cx9In89-n9-5" source="avdNNv7QA7Cx9In89-n9-55" target="avdNNv7QA7Cx9In89-n9-26" edge="1">
          <mxGeometry relative="1" as="geometry">
            <Array as="points">
              <mxPoint x="451" y="270" />
              <mxPoint x="280" y="270" />
              <mxPoint x="280" y="337" />
            </Array>
          </mxGeometry>
        </mxCell>
        <mxCell id="avdNNv7QA7Cx9In89-n9-55" value="Application Load Balancer" style="text;html=1;strokeColor=none;fillColor=none;align=center;verticalAlign=middle;whiteSpace=wrap;rounded=0;" parent="avdNNv7QA7Cx9In89-n9-5" vertex="1">
          <mxGeometry x="390.5" y="175" width="120" height="30" as="geometry" />
        </mxCell>
        <mxCell id="nrgCyI4Qcjg0DDZfqGtk-14" style="edgeStyle=orthogonalEdgeStyle;rounded=0;orthogonalLoop=1;jettySize=auto;html=1;endArrow=classic;endFill=1;startArrow=classic;startFill=1;entryX=0.5;entryY=1;entryDx=0;entryDy=0;entryPerimeter=0;exitX=0.5;exitY=1;exitDx=0;exitDy=0;exitPerimeter=0;" edge="1" parent="avdNNv7QA7Cx9In89-n9-5" source="avdNNv7QA7Cx9In89-n9-78" target="nrgCyI4Qcjg0DDZfqGtk-10">
          <mxGeometry relative="1" as="geometry">
            <mxPoint x="220" y="640" as="sourcePoint" />
            <mxPoint x="500" y="630" as="targetPoint" />
            <Array as="points">
              <mxPoint x="234" y="544" />
              <mxPoint x="624" y="544" />
            </Array>
          </mxGeometry>
        </mxCell>
        <mxCell id="avdNNv7QA7Cx9In89-n9-78" value="" style="sketch=0;points=[[0,0,0],[0.25,0,0],[0.5,0,0],[0.75,0,0],[1,0,0],[0,1,0],[0.25,1,0],[0.5,1,0],[0.75,1,0],[1,1,0],[0,0.25,0],[0,0.5,0],[0,0.75,0],[1,0.25,0],[1,0.5,0],[1,0.75,0]];outlineConnect=0;fontColor=#232F3E;gradientColor=#4D72F3;gradientDirection=north;fillColor=#3334B9;strokeColor=#ffffff;dashed=0;verticalLabelPosition=bottom;verticalAlign=top;align=center;html=1;fontSize=12;fontStyle=0;aspect=fixed;shape=mxgraph.aws4.resourceIcon;resIcon=mxgraph.aws4.aurora;" parent="avdNNv7QA7Cx9In89-n9-5" vertex="1">
          <mxGeometry x="200" y="459" width="68" height="68" as="geometry" />
        </mxCell>
        <mxCell id="avdNNv7QA7Cx9In89-n9-79" value="RDS Aurora&lt;br style=&quot;border-color: var(--border-color);&quot;&gt;(Serverless V2)" style="text;html=1;strokeColor=none;fillColor=none;align=center;verticalAlign=middle;whiteSpace=wrap;rounded=0;" parent="avdNNv7QA7Cx9In89-n9-5" vertex="1">
          <mxGeometry x="80.38" y="479" width="85.62" height="30" as="geometry" />
        </mxCell>
        <mxCell id="avdNNv7QA7Cx9In89-n9-86" value="AWS WAF" style="text;html=1;strokeColor=none;fillColor=none;align=center;verticalAlign=middle;whiteSpace=wrap;rounded=0;" parent="avdNNv7QA7Cx9In89-n9-5" vertex="1">
          <mxGeometry x="886" y="89" width="83.37" height="30" as="geometry" />
        </mxCell>
        <mxCell id="avdNNv7QA7Cx9In89-n9-87" value="Cloud Watch: Metrics,&lt;br&gt;Logging,&lt;br&gt;Alerting,&lt;br&gt;Dashboards" style="text;html=1;strokeColor=none;fillColor=none;align=center;verticalAlign=middle;whiteSpace=wrap;rounded=0;" parent="avdNNv7QA7Cx9In89-n9-5" vertex="1">
          <mxGeometry x="885.56" y="231" width="83.37" height="30" as="geometry" />
        </mxCell>
        <mxCell id="avdNNv7QA7Cx9In89-n9-88" value="Custom AMI&#39;s" style="text;html=1;strokeColor=none;fillColor=none;align=center;verticalAlign=middle;whiteSpace=wrap;rounded=0;" parent="avdNNv7QA7Cx9In89-n9-5" vertex="1">
          <mxGeometry x="885.9999999999999" y="363" width="83.37" height="30" as="geometry" />
        </mxCell>
        <mxCell id="avdNNv7QA7Cx9In89-n9-89" value="S3:&lt;br&gt;&amp;nbsp;Backups, Logging" style="text;html=1;strokeColor=none;fillColor=none;align=center;verticalAlign=middle;whiteSpace=wrap;rounded=0;" parent="avdNNv7QA7Cx9In89-n9-5" vertex="1">
          <mxGeometry x="879.6299999999999" y="503" width="83.37" height="30" as="geometry" />
        </mxCell>
        <mxCell id="nrgCyI4Qcjg0DDZfqGtk-17" style="edgeStyle=orthogonalEdgeStyle;rounded=0;orthogonalLoop=1;jettySize=auto;html=1;entryX=0.314;entryY=0.006;entryDx=0;entryDy=0;entryPerimeter=0;" edge="1" parent="avdNNv7QA7Cx9In89-n9-5" source="nrgCyI4Qcjg0DDZfqGtk-4" target="avdNNv7QA7Cx9In89-n9-3">
          <mxGeometry relative="1" as="geometry" />
        </mxCell>
        <mxCell id="nrgCyI4Qcjg0DDZfqGtk-4" value="Systems Manager Session Manager" style="text;html=1;strokeColor=none;fillColor=none;align=center;verticalAlign=middle;whiteSpace=wrap;rounded=0;" vertex="1" parent="avdNNv7QA7Cx9In89-n9-5">
          <mxGeometry x="63.18999999999999" y="160" width="120" height="30" as="geometry" />
        </mxCell>
        <mxCell id="nrgCyI4Qcjg0DDZfqGtk-15" style="edgeStyle=orthogonalEdgeStyle;rounded=0;orthogonalLoop=1;jettySize=auto;html=1;entryX=0;entryY=0.5;entryDx=0;entryDy=0;entryPerimeter=0;" edge="1" parent="avdNNv7QA7Cx9In89-n9-5" source="nrgCyI4Qcjg0DDZfqGtk-7" target="nrgCyI4Qcjg0DDZfqGtk-10">
          <mxGeometry relative="1" as="geometry" />
        </mxCell>
        <mxCell id="nrgCyI4Qcjg0DDZfqGtk-16" style="edgeStyle=orthogonalEdgeStyle;rounded=0;orthogonalLoop=1;jettySize=auto;html=1;entryX=1;entryY=0.5;entryDx=0;entryDy=0;entryPerimeter=0;" edge="1" parent="avdNNv7QA7Cx9In89-n9-5" source="nrgCyI4Qcjg0DDZfqGtk-7" target="avdNNv7QA7Cx9In89-n9-78">
          <mxGeometry relative="1" as="geometry" />
        </mxCell>
        <mxCell id="nrgCyI4Qcjg0DDZfqGtk-7" value="" style="sketch=0;outlineConnect=0;fontColor=#232F3E;gradientColor=none;fillColor=#2E27AD;strokeColor=none;dashed=0;verticalLabelPosition=bottom;verticalAlign=top;align=center;html=1;fontSize=12;fontStyle=0;aspect=fixed;pointerEvents=1;shape=mxgraph.aws4.rds_proxy;" vertex="1" parent="avdNNv7QA7Cx9In89-n9-5">
          <mxGeometry x="396" y="459" width="68" height="68" as="geometry" />
        </mxCell>
        <mxCell id="avdNNv7QA7Cx9In89-n9-81" style="edgeStyle=orthogonalEdgeStyle;rounded=0;orthogonalLoop=1;jettySize=auto;html=1;exitX=0.5;exitY=1;exitDx=0;exitDy=0;exitPerimeter=0;" parent="avdNNv7QA7Cx9In89-n9-5" source="avdNNv7QA7Cx9In89-n9-26" target="nrgCyI4Qcjg0DDZfqGtk-7" edge="1">
          <mxGeometry relative="1" as="geometry">
            <Array as="points">
              <mxPoint x="196" y="390" />
              <mxPoint x="427" y="390" />
            </Array>
          </mxGeometry>
        </mxCell>
        <mxCell id="nrgCyI4Qcjg0DDZfqGtk-10" value="" style="sketch=0;points=[[0,0,0],[0.25,0,0],[0.5,0,0],[0.75,0,0],[1,0,0],[0,1,0],[0.25,1,0],[0.5,1,0],[0.75,1,0],[1,1,0],[0,0.25,0],[0,0.5,0],[0,0.75,0],[1,0.25,0],[1,0.5,0],[1,0.75,0]];outlineConnect=0;fontColor=#232F3E;gradientColor=#4D72F3;gradientDirection=north;fillColor=#3334B9;strokeColor=#ffffff;dashed=0;verticalLabelPosition=bottom;verticalAlign=top;align=center;html=1;fontSize=12;fontStyle=0;aspect=fixed;shape=mxgraph.aws4.resourceIcon;resIcon=mxgraph.aws4.aurora;" vertex="1" parent="avdNNv7QA7Cx9In89-n9-5">
          <mxGeometry x="590" y="459.5" width="68" height="68" as="geometry" />
        </mxCell>
        <mxCell id="nrgCyI4Qcjg0DDZfqGtk-11" value="RDS Aurora &lt;br&gt;(Serverless V2)" style="text;html=1;strokeColor=none;fillColor=none;align=center;verticalAlign=middle;whiteSpace=wrap;rounded=0;" vertex="1" parent="avdNNv7QA7Cx9In89-n9-5">
          <mxGeometry x="680" y="479" width="85.62" height="30" as="geometry" />
        </mxCell>
        <mxCell id="nrgCyI4Qcjg0DDZfqGtk-13" value="EC2" style="text;html=1;strokeColor=none;fillColor=none;align=center;verticalAlign=middle;whiteSpace=wrap;rounded=0;" vertex="1" parent="avdNNv7QA7Cx9In89-n9-5">
          <mxGeometry x="214.75" y="346.49" width="60" height="30" as="geometry" />
        </mxCell>
        <mxCell id="avdNNv7QA7Cx9In89-n9-6" value="AWS Cloud" style="points=[[0,0],[0.25,0],[0.5,0],[0.75,0],[1,0],[1,0.25],[1,0.5],[1,0.75],[1,1],[0.75,1],[0.5,1],[0.25,1],[0,1],[0,0.75],[0,0.5],[0,0.25]];outlineConnect=0;gradientColor=none;html=1;whiteSpace=wrap;fontSize=12;fontStyle=0;container=0;pointerEvents=0;collapsible=0;recursiveResize=0;shape=mxgraph.aws4.group;grIcon=mxgraph.aws4.group_aws_cloud;strokeColor=#232F3E;fillColor=none;verticalAlign=top;align=left;spacingLeft=30;fontColor=#232F3E;dashed=0;" parent="1" vertex="1">
          <mxGeometry x="-40" y="310" width="1020" height="650" as="geometry" />
        </mxCell>
        <mxCell id="avdNNv7QA7Cx9In89-n9-7" value="Region" style="points=[[0,0],[0.25,0],[0.5,0],[0.75,0],[1,0],[1,0.25],[1,0.5],[1,0.75],[1,1],[0.75,1],[0.5,1],[0.25,1],[0,1],[0,0.75],[0,0.5],[0,0.25]];outlineConnect=0;gradientColor=none;html=1;whiteSpace=wrap;fontSize=12;fontStyle=0;container=0;pointerEvents=0;collapsible=0;recursiveResize=0;shape=mxgraph.aws4.group;grIcon=mxgraph.aws4.group_region;strokeColor=#147EBA;fillColor=none;verticalAlign=top;align=left;spacingLeft=30;fontColor=#147EBA;dashed=1;" parent="1" vertex="1">
          <mxGeometry x="-30" y="340" width="1000" height="610" as="geometry" />
        </mxCell>
        <mxCell id="nrgCyI4Qcjg0DDZfqGtk-2" value="" style="sketch=0;outlineConnect=0;fontColor=#232F3E;gradientColor=none;fillColor=#B0084D;strokeColor=none;dashed=0;verticalLabelPosition=bottom;verticalAlign=top;align=center;html=1;fontSize=12;fontStyle=0;aspect=fixed;pointerEvents=1;shape=mxgraph.aws4.systems_manager_session_manager;" vertex="1" parent="1">
          <mxGeometry x="82" y="474" width="58" height="58" as="geometry" />
        </mxCell>
      </root>
    </mxGraphModel>
  </diagram>
</mxfile>
